<?xml version="1.0" encoding="UTF-8"?>
<svg width="48" height="48" viewBox="0 0 48 48" fill="none" xmlns="http://www.w3.org/2000/svg">
  <!-- Background -->
  <rect width="48" height="48" rx="12" fill="#6366F1" />
  
  <!-- Letter R -->
  <path d="M14,13 L14,35 L19,35 L19,26 L22,26 L25,35 L31,35 L27.5,25 C30,24 31.5,21.5 31.5,18.5 C31.5,14.5 28.5,13 23.5,13 L14,13 Z M19,17.5 L23,17.5 C24.5,17.5 25.5,18 26,19.5 C26.2,20 26.3,20.7 26.3,21.5 C26.3,23.2 25.7,24.2 24.5,24.8 C24,25.1 23.2,25.3 22.3,25.3 L19,25.3 L19,17.5 Z" fill="white"/>
</svg>