<?xml version="1.0" encoding="UTF-8"?>
<svg width="140" height="40" viewBox="0 0 140 40" fill="none" xmlns="http://www.w3.org/2000/svg">
  <!-- Background for R -->
  <rect width="36" height="36" rx="8" fill="white" />
  
  <!-- Letter R -->
  <path d="M10,9 L10,27 L14,27 L14,20 L16.5,20 L19,27 L24,27 L21.5,18.8 C23.5,18 24.5,16 24.5,13.5 C24.5,10 22,9 18,9 L10,9 Z M14,12.5 L17.5,12.5 C18.8,12.5 19.5,13 20,14 C20.2,14.5 20.3,15 20.3,15.5 C20.3,17 19.7,18 18.5,18.5 C18,18.7 17.5,18.8 17,18.8 L14,18.8 L14,12.5 Z" fill="#6366F1"/>
  
  <!-- Text "hilo" -->
  <path d="M42 9H46V18H55V9H59V27H55V21.5H46V27H42V9Z" fill="white"/>
  <path d="M65 9H69V27H65V9Z" fill="white"/>
  <path d="M75 9H79V23.5H90V27H75V9Z" fill="white"/>
  <path d="M95 9H110V12.5H99V16H108V19.5H99V23.5H110V27H95V9Z" fill="white"/>
  
  <!-- Dot above the "i" -->
  <circle cx="67" cy="6" r="2" fill="#10B981"/>
</svg>